<?xml version="1.0" encoding="UTF-8"?>
<!DOCTYPE svg PUBLIC "-//W3C//DTD SVG 1.1//EN" "http://www.w3.org/Graphics/SVG/1.1/DTD/svg11.dtd">
<!-- Creator: CorelDRAW (Versão de avaliação) -->
<svg xmlns="http://www.w3.org/2000/svg" xml:space="preserve" width="300mm" height="300mm" version="1.1" style="shape-rendering:geometricPrecision; text-rendering:geometricPrecision; image-rendering:optimizeQuality; fill-rule:evenodd; clip-rule:evenodd"
viewBox="0 0 30000 30000"
 xmlns:xlink="http://www.w3.org/1999/xlink"
 xmlns:xodm="http://www.corel.com/coreldraw/odm/2003">
 <defs>
  <style type="text/css">
   <![CDATA[
    .fil11 {fill:none}
    .fil5 {fill:#312E4B}
    .fil6 {fill:#46CC6B}
    .fil4 {fill:#5A5D8A}
    .fil8 {fill:#65B9FF}
    .fil0 {fill:#B268F7}
    .fil9 {fill:#B5B5EA}
    .fil2 {fill:#C7754F}
    .fil1 {fill:#DDDDFE}
    .fil3 {fill:#E73D62}
    .fil7 {fill:#FCB73D}
    .fil10 {fill:#FDAE92}
   ]]>
  </style>
   <clipPath id="id0">
    <path d="M14997.07 330.31c8103.46,0 14672.62,6569.16 14672.62,14672.62 0,8103.46 -6569.16,14672.62 -14672.62,14672.62 -8103.46,0 -14672.62,-6569.16 -14672.62,-14672.62 0,-8103.46 6569.16,-14672.62 14672.62,-14672.62z"/>
   </clipPath>
 </defs>
 <g id="Camada_x0020_1">
  <metadata id="CorelCorpID_0Corel-Layer"/>
  <path class="fil0" d="M14997.07 330.31c8103.46,0 14672.62,6569.16 14672.62,14672.62 0,8103.46 -6569.16,14672.62 -14672.62,14672.62 -8103.46,0 -14672.62,-6569.16 -14672.62,-14672.62 0,-8103.46 6569.16,-14672.62 14672.62,-14672.62z"/>
  <g style="clip-path:url(#id0)">
   <g id="_550329944">
    <g>
     <path id="_1" class="fil1" d="M10897.1 21186.67c-124.12,272.21 -483.77,201.96 -831.86,201.89 -1236.5,-0.29 -1379.75,166.57 -1380.18,-733 -0.59,-1229.83 -132.67,-1206.18 887.01,-1206.05 1216.75,0.14 1364.13,-164.11 1361.95,712.82 -0.55,213.19 29.46,878.76 -36.92,1024.34zm1107.45 -1289.85c-60.38,-364.67 386.86,-292.82 640.38,-292.42l1972.77 0.03c269.65,-0.01 733.74,-90.49 782.43,191.55 60.47,350.32 -377.57,290.5 -630.65,289.95l-1972.77 -0.05c-252.46,0.01 -748.02,77.56 -792.16,-189.06zm-1111.28 -1517.48c-123.2,243.77 -502.07,194.7 -828.03,194.61 -1316.77,-0.31 -1380.11,150.41 -1380.37,-725.72 -0.07,-227.94 -39.06,-858.83 43.03,-1033.85 114.65,-244.46 519.68,-179.95 844.17,-179.9 1229.74,0.17 1364.24,-163.34 1362.02,720.52 -0.53,209.24 29.2,885.8 -40.82,1024.34zm1112.64 -151.75c-58.46,-405.51 544.86,-289.67 866.68,-289.66l2352.1 0c306.53,0 921.39,-103.89 974.79,188.45 74.97,410.41 -577.74,295.51 -860.97,295.51l-2352.11 0c-273.89,0 -936.42,111.39 -980.49,-194.3zm-1099.09 -2693.54c-119.03,293.73 -479.58,224.91 -803.64,224.77 -317.51,-0.14 -758.8,25.78 -1061.26,-2.61 -381.73,-35.83 -357.39,-304.75 -356.97,-677.38 1.4,-1266.49 -128.66,-1259.52 849.17,-1259.2 1229.44,0.41 1403.02,-166.23 1400.03,690.03 -0.72,203.7 27.47,889.17 -27.33,1024.39zm1100.87 -113.81c-76.79,-402.49 580.63,-297.63 864.9,-297.63l2352.1 0c277.41,0 921.43,-117.83 975.01,195.95 66.55,389.69 -577.89,285.5 -861.19,285.5l-2352.11 0c-268.7,0 -926.11,91.88 -978.71,-183.82zm5765.71 -1046.72c-283.49,170.7 -2312.17,82.14 -2852.2,82.14 -548.63,0 -2600.9,89.79 -2888.26,-84.87 -122.15,-528.17 343.64,-399.08 1181.09,-399.08l4174.69 -1.72c340.96,0.31 458.69,72.99 384.68,403.53zm-6869.52 -1646.82c-122.52,275.03 -486.75,217.52 -800.7,217.37 -1254.28,-0.57 -1419.5,162.28 -1418.39,-672.58 0.27,-205.45 -28.56,-899.8 27.72,-1046.99 108.72,-284.25 508.62,-220.14 821.61,-220.04 1292.35,0.42 1402.77,-156.64 1400.13,697.87 -0.65,205.04 30.16,888.49 -30.37,1024.37zm1105.6 -113.81c-78.88,-423.82 569.8,-305.6 863.11,-305.59l2352.1 0c286.6,0 925.1,-113.53 976.08,201.46 63.67,393.45 -549.51,279.98 -862.26,279.98l-2352.11 0c-302.26,0 -925.81,98.82 -976.92,-175.85zm5725.98 -1020.32c-298.27,98.67 -3829.72,48.85 -4635.25,48.85 -251.36,0 -555.03,15.7 -799.7,0.87 -304.2,-18.43 -396.1,-279.86 -217.7,-424.77 138.42,-112.44 3933.87,-61.13 4621.43,-61.13 479.61,0 1318.81,-158.29 1031.22,436.18zm867.04 10951.38l1.79 -2205.98 -774.38 439.17c-95.29,94.6 -682.87,454.1 -842.64,447.75 -648.45,69.26 -3143.11,12.29 -4114.68,12.3 -340.3,0.02 -800.34,80.57 -861.66,-177.28 -36.18,-152.23 36.27,-209.74 106.91,-256.16 172.45,-113.39 4193.42,-52.2 4764.34,-52.2l13.28 -154.44 1.86 -316.13 -89.31 -1326.25 821.22 -1630.71c-60.07,-46.3 44.14,-20.45 -127.91,-50.98 -31.77,-5.65 -151.24,-4.55 -189.33,-3.99 -126.93,1.89 -253.15,1.92 -380.13,1.92l-3793.71 0c-281.8,0 -1327.92,143.61 -1113.36,-343.34 85.13,-193.19 404.02,-138.69 620.16,-138.34l4552.52 -0.04c401.25,-1.14 358.79,-58.45 623.8,151.97l782.89 -1530.13c53.84,-404.58 12.43,-1109.33 12.43,-1546.27 0,-693.04 58.97,-4363.53 -47.58,-4513.88 -58.48,-72.37 -1.55,-45.09 -107.82,-82.92l-2618.1 -12.24c-39.28,638.47 -188.81,600.74 -808.09,599.92l-2769.4 -0.03c-163.17,0 -1158.34,67.78 -1281.65,-27.87 -328.77,3.53 -323.94,-279.53 -343.17,-573.86 -560.2,0 -2338.9,-62.46 -2718.73,41.2 -112.43,380.74 -43.9,2710.75 -43.9,3317.75 0,1482.94 -65.33,9786.1 52.8,10060.41 329.21,103.59 8728.2,30.43 10177.17,41.62 271.28,2.11 410.61,52.72 494.38,-170.97z"/>
     <path class="fil2" d="M19701.28 18766.62c-123.17,141.16 -252.83,447.01 -348.27,628.68 -63.33,120.6 -103.6,213.95 -162.81,333.04 -65.52,131.79 -114.01,261.24 -214.39,334.61 -55.83,114.24 -220.31,159.39 -333.02,251.18 -62.42,430.38 62.59,2004.26 -40.29,2229.82 -83.77,223.69 -223.1,173.08 -494.38,170.97 -1448.97,-11.19 -9847.96,61.97 -10177.17,-41.62 -118.13,-274.31 -52.8,-8577.47 -52.8,-10060.41 0,-607 -68.53,-2937.01 43.9,-3317.75 379.83,-103.66 2158.53,-41.2 2718.73,-41.2l6.6 -1079.69c-775.82,0 -1551.64,0 -2327.46,0 -598.2,0 -1372.04,-130.36 -1540.98,810.9 -64.22,357.75 -14.22,8743.6 -14.22,9356.25 0,695.38 -44.2,4314.46 26.37,4677.83 172.94,890.54 906.79,785.11 1528.83,785.11l9370.68 0c359.37,0 829.81,26.56 1175.49,-0.56 318.64,-25.01 589.67,-240.67 721.87,-454.2 210.66,-340.29 113.32,-1663.9 113.32,-2238.78 0,-781.39 0,-1562.78 0,-2344.18z"/>
     <path class="fil3" d="M19701.25 13257.83c-37.97,233.01 -410.74,820.16 -539.21,1090.15 -106.94,224.71 -418.4,888.28 -557.88,1063.11l-782.89 1530.13 -192.04 382.8 -821.22 1630.71c388.99,163.46 698.31,372.03 1092.41,547.34 389,173.02 684.09,358.97 1075.39,560.88 100.38,-73.37 148.87,-202.82 214.39,-334.61 59.21,-119.09 99.48,-212.44 162.81,-333.04 95.44,-181.67 225.1,-487.52 348.27,-628.68 540.44,-1147.88 1386.42,-2666.97 1985.37,-3864.86l670.22 -1304.18 -2200.35 -1134.51 -455.27 794.76z"/>
     <path class="fil4" d="M11658.6 7615.99c-505.08,109.07 -385.38,555.61 -385.38,1051.45 0,375.78 -103.78,1051.92 231.69,1143.4l-520.96 16.96c123.31,95.65 1118.48,27.87 1281.65,27.87l2769.4 0.03c619.28,0.82 768.81,38.55 808.09,-599.92 -6.88,-140.96 -40.57,-953.36 26.54,-1086.55 -96.43,-185.69 24.66,-450.58 -310.9,-518.71 -156.63,-31.79 -671.62,-7.39 -865.16,-7.39l-18.4 -75.87c-62.26,122.01 26.04,42.49 -131.76,71.01 -4.38,0.78 -139.98,3.31 -152.71,3.21 -160.33,-1.42 -197.19,11.22 -304.12,-44.93 -113.85,88.68 -1062.99,45.43 -1252.09,46.78 -128.8,0.91 -316.61,30.72 -417.15,-45.56 -106.15,54.29 -146.23,42.24 -304.05,43.65 -126.27,1.13 -266.87,32.6 -286,-74.16l-18.69 75.65 -150 -26.92z"/>
     <path class="fil2" d="M15843.09 9255.78l2618.1 12.24c106.27,37.83 49.34,10.55 107.82,82.92 106.55,150.35 47.58,3820.84 47.58,4513.88 0,436.94 41.41,1141.69 -12.43,1546.27 139.48,-174.83 450.94,-838.4 557.88,-1063.11 128.47,-269.99 501.24,-857.14 539.21,-1090.15 0.14,-556.7 36.8,-4196.43 -21.77,-4416.86 -210.07,-790.66 -1010.6,-666.72 -1571.57,-666.72 -724.29,0 -1523.36,31.68 -2238.28,-5.02 -67.11,133.19 -33.42,945.59 -26.54,1086.55z"/>
     <path class="fil5" d="M20497.95 11812.34l2200.35 1125.19c147.46,-205.45 508.85,-923.29 516.41,-1239.27 5.52,-231.2 -82.65,-531.42 -195.91,-695.73 -52.12,-75.63 -46.79,-64.21 -100.62,-126.99 -18.43,-21.48 -31.79,-37.64 -53.08,-60.73 -460.47,-499.87 -1229.97,-503.84 -1673.78,-126.21 -226.11,192.41 -620.5,826.26 -693.37,1123.74z"/>
     <path class="fil6" d="M9597.59 17617.43c281.8,-146.34 387.5,-572.72 743.49,-430.11 64.14,277.88 -121.26,346.38 -280.05,504.96 -92.26,92.12 -293.42,322.54 -413.09,374.62 -44.29,6.53 -554.16,-195.27 -398.11,-572.28 239.12,-49.76 216.64,7.31 347.76,122.81zm1295.68 761.91c70.02,-138.54 40.29,-815.1 40.82,-1024.34 2.22,-883.86 -132.28,-720.35 -1362.02,-720.52 -324.49,-0.05 -729.52,-64.56 -844.17,179.9 -82.09,175.02 -43.1,805.91 -43.03,1033.85 0.26,876.13 63.6,725.41 1380.37,725.72 325.96,0.09 704.83,49.16 828.03,-194.61z"/>
     <path class="fil3" d="M9252.34 11920.25c278.41,-58.67 219.4,19.75 397.63,122.89 83.61,-118.58 185.88,-201.7 293.59,-310.8 137.53,-139.29 177.58,-205.08 396.07,-119.42 66.45,274.15 -188.17,419.34 -540.3,773.29 -186.89,187.87 -276.51,95.04 -413.75,-41.82 -138.8,-138.42 -233.73,-193.11 -133.24,-424.14zm1651.54 806.45c60.53,-135.88 29.72,-819.33 30.37,-1024.37 2.64,-854.51 -107.78,-697.45 -1400.13,-697.87 -312.99,-0.1 -712.89,-64.21 -821.61,220.04 -56.28,147.19 -27.45,841.54 -27.72,1046.99 -1.11,834.86 164.11,672.01 1418.39,672.58 313.95,0.15 678.18,57.66 800.7,-217.37z"/>
     <path class="fil7" d="M9257.71 20309.7c251.32,-53.35 222.23,34.88 397.7,122.76 474.46,-672.85 803.8,-487.81 692.55,-219.26 -20.57,49.66 -197.17,212.62 -241.05,256.41 -332.18,331.43 -437.29,626.7 -822.49,168.32 -113.1,-134.6 -96.88,-180.94 -26.71,-328.23zm1639.39 876.97c66.38,-145.58 36.37,-811.15 36.92,-1024.34 2.18,-876.93 -145.2,-712.68 -1361.95,-712.82 -1019.68,-0.13 -887.6,-23.78 -887.01,1206.05 0.43,899.57 143.68,732.71 1380.18,733 348.09,0.07 707.74,70.32 831.86,-201.89z"/>
     <path class="fil8" d="M9609.7 14802.56c128.09,-93.14 435.98,-519.92 630.92,-467.92 398.04,106.19 -199.56,592.68 -244.26,637.31 -275.62,275.22 -311.42,417.66 -639.16,93.86 -64.69,-63.91 -243.65,-203.69 -107.86,-347.46 141.35,-149.64 287.74,24.17 360.36,84.21zm1297.12 731.49c54.8,-135.22 26.61,-820.69 27.33,-1024.39 2.99,-856.26 -170.59,-689.62 -1400.03,-690.03 -977.83,-0.32 -847.77,-7.29 -849.17,1259.2 -0.42,372.63 -24.76,641.55 356.97,677.38 302.46,28.39 743.75,2.47 1061.26,2.61 324.06,0.14 684.61,68.96 803.64,-224.77z"/>
     <path class="fil9" d="M17773.4 14373.52c74.01,-330.54 -43.72,-403.22 -384.68,-403.53l-4174.69 1.72c-837.45,0 -1303.24,-129.09 -1181.09,399.08 287.36,174.66 2339.63,84.87 2888.26,84.87 540.03,0 2568.71,88.56 2852.2,-82.14z"/>
     <path class="fil9" d="M16704.24 11156.39c-687.56,0 -4483.01,-51.31 -4621.43,61.13 -178.4,144.91 -86.5,406.34 217.7,424.77 244.67,14.83 548.34,-0.87 799.7,-0.87 805.53,0 4336.98,49.82 4635.25,-48.85 287.59,-594.47 -551.61,-436.18 -1031.22,-436.18z"/>
     <path class="fil9" d="M17629.23 17324.02l192.04 -382.8c-265.01,-210.42 -222.55,-153.11 -623.8,-151.97l-4552.52 0.04c-216.14,-0.35 -535.03,-54.85 -620.16,138.34 -214.56,486.95 831.56,343.34 1113.36,343.34l3793.71 0c126.98,0 253.2,-0.03 380.13,-1.92 38.09,-0.56 157.56,-1.66 189.33,3.99 172.05,30.53 67.84,4.68 127.91,50.98z"/>
     <path class="fil9" d="M16987.27 21224.89l-91.81 -627.78 -13.28 154.44c-570.92,0 -4591.89,-61.19 -4764.34,52.2 -70.64,46.42 -143.09,103.93 -106.91,256.16 61.32,257.85 521.36,177.3 861.66,177.28 971.57,-0.01 3466.23,56.96 4114.68,-12.3z"/>
     <path class="fil10" d="M16897.32 20280.98l932.59 496.16 774.38 -439.17 -1.79 2205.98c102.88,-225.56 -22.13,-1799.44 40.29,-2229.82 112.71,-91.79 277.19,-136.94 333.02,-251.18 -391.3,-201.91 -686.39,-387.86 -1075.39,-560.88 -394.1,-175.31 -703.42,-383.88 -1092.41,-547.34l89.31 1326.25z"/>
     <path class="fil9" d="M12986.4 18421.89l2352.11 0c283.23,0 935.94,114.9 860.97,-295.51 -53.4,-292.34 -668.26,-188.45 -974.79,-188.45l-2352.1 0c-321.82,-0.01 -925.14,-115.85 -866.68,289.66 44.07,305.69 706.6,194.3 980.49,194.3z"/>
     <path class="fil9" d="M12986.4 12788.74l2352.11 0c312.75,0 925.93,113.47 862.26,-279.98 -50.98,-314.99 -689.48,-201.46 -976.08,-201.46l-2352.1 0c-293.31,-0.01 -941.99,-118.23 -863.11,305.59 51.11,274.67 674.66,175.85 976.92,175.85z"/>
     <path class="fil9" d="M12986.4 15604.06l2352.11 0c283.3,0 927.74,104.19 861.19,-285.5 -53.58,-313.78 -697.6,-195.95 -975.01,-195.95l-2352.1 0c-284.27,0 -941.69,-104.86 -864.9,297.63 52.6,275.7 710.01,183.82 978.71,183.82z"/>
     <path class="fil1" d="M20156.52 12463.07l2200.35 1134.51c118.94,-218.88 241.26,-420.99 341.43,-660.05l-2200.35 -1125.19c-82.59,102.06 -309.21,509.01 -341.43,650.73z"/>
     <path class="fil4" d="M11886.23 7279.91l569.06 3.61c191.66,-303.87 336.79,-516.49 796.68,-516.49 456.53,0 606.04,210.37 796.67,517.71l569.06 -5.44c-54.31,-764.9 -1345.62,-1542.64 -2265.69,-763.75 -176.58,149.5 -445.88,482.31 -465.78,764.36z"/>
     <path class="fil9" d="M12796.71 20085.88l1972.77 0.05c253.08,0.55 691.12,60.37 630.65,-289.95 -48.69,-282.04 -512.78,-191.56 -782.43,-191.55l-1972.77 -0.03c-253.52,-0.4 -700.76,-72.25 -640.38,292.42 44.14,266.62 539.7,189.07 792.16,189.06z"/>
     <path class="fil5" d="M10647.38 8174.25l-6.6 1079.69c19.23,294.33 14.4,577.39 343.17,573.86l520.96 -16.96c-335.47,-91.48 -231.69,-767.62 -231.69,-1143.4 0,-495.84 -119.7,-942.38 385.38,-1051.45 -176.97,-31.96 -575.37,-12.02 -719.94,28.01 -119.4,33.05 -174.5,76.67 -239.9,177.51 -73.82,113.82 -74.49,180 -51.38,352.74z"/>
     <path class="fil1" d="M9609.7 14802.56c-72.62,-60.04 -219.01,-233.85 -360.36,-84.21 -135.79,143.77 43.17,283.55 107.86,347.46 327.74,323.8 363.54,181.36 639.16,-93.86 44.7,-44.63 642.3,-531.12 244.26,-637.31 -194.94,-52 -502.83,374.78 -630.92,467.92z"/>
     <path class="fil1" d="M9257.71 20309.7c-70.17,147.29 -86.39,193.63 26.71,328.23 385.2,458.38 490.31,163.11 822.49,-168.32 43.88,-43.79 220.48,-206.75 241.05,-256.41 111.25,-268.55 -218.09,-453.59 -692.55,219.26 -175.47,-87.88 -146.38,-176.11 -397.7,-122.76z"/>
     <path class="fil1" d="M9252.34 11920.25c-100.49,231.03 -5.56,285.72 133.24,424.14 137.24,136.86 226.86,229.69 413.75,41.82 352.13,-353.95 606.75,-499.14 540.3,-773.29 -218.49,-85.66 -258.54,-19.87 -396.07,119.42 -107.71,109.1 -209.98,192.22 -293.59,310.8 -178.23,-103.14 -119.22,-181.56 -397.63,-122.89z"/>
     <path class="fil1" d="M9597.59 17617.43c-131.12,-115.5 -108.64,-172.57 -347.76,-122.81 -156.05,377.01 353.82,578.81 398.11,572.28 119.67,-52.08 320.83,-282.5 413.09,-374.62 158.79,-158.58 344.19,-227.08 280.05,-504.96 -355.99,-142.61 -461.69,283.77 -743.49,430.11z"/>
     <path class="fil5" d="M16895.46 20597.11l91.81 627.78c159.77,6.35 747.35,-353.15 842.64,-447.75l-932.59 -496.16 -1.86 316.13z"/>
     <path class="fil5" d="M11827.29 7567.26c19.13,106.76 159.73,75.29 286,74.16 157.82,-1.41 197.9,10.64 304.05,-43.65 0,-186.22 23.83,-181.81 37.95,-314.25l-569.06 -3.61c-63.39,99.8 -26.59,136.77 -58.94,287.35z"/>
     <path class="fil5" d="M14086.58 7596.55c106.93,56.15 143.79,43.51 304.12,44.93 12.73,0.1 148.33,-2.43 152.71,-3.21 157.8,-28.52 69.5,51 131.76,-71.01l-57.47 -287.96 -569.06 5.44c43.15,136.2 37.94,129.15 37.94,311.81z"/>
    </g>
   </g>
  </g>
  <path class="fil11" d="M14997.07 330.31c8103.46,0 14672.62,6569.16 14672.62,14672.62 0,8103.46 -6569.16,14672.62 -14672.62,14672.62 -8103.46,0 -14672.62,-6569.16 -14672.62,-14672.62 0,-8103.46 6569.16,-14672.62 14672.62,-14672.62z"/>
 </g>
</svg>
